<?xml version="1.0" encoding="UTF-8"?>
<svg xmlns="http://www.w3.org/2000/svg" xmlns:xlink="http://www.w3.org/1999/xlink" xmlns:xodm="http://www.corel.com/coreldraw/odm/2003" xml:space="preserve" width="246px" height="83px" version="1.1" style="shape-rendering:geometricPrecision; text-rendering:geometricPrecision; image-rendering:optimizeQuality; fill-rule:evenodd; clip-rule:evenodd" viewBox="0 0 246 83">
 <defs>
  <style type="text/css">
   
    .fil0 {fill:#FEFEFE;fill-rule:nonzero}
   
  </style>
 </defs>
 <g id="Layer_x0020_1">
  <metadata id="CorelCorpID_0Corel-Layer"></metadata>
  <path class="fil0" d="M77.192 28.319l14.047 33.69 -3.223 0c-0.738,0 -1.249,-0.369 -1.54,-1.107l-1.54 -3.803 -18.039 0c-0.738,1.864 -1.235,3.116 -1.491,3.756 -0.354,0.77 -0.897,1.154 -1.635,1.154l-3.176 0 14.145 -33.69 2.452 0zm-8.652 24.786l14.721 0 -6.357 -15.353c-0.61,-1.445 -0.915,-2.376 -0.915,-2.791l0 -0.531 -0.145 0 0 0.531c0,0.415 -0.304,1.346 -0.912,2.791l-6.392 15.353zm28.905 8.904l-3.992 0 0 -33.69 3.992 0 0 33.69zm16.549 0l-3.993 0 0 -33.69 3.993 0 0 33.69zm23.525 -0.246l-3.936 0.049 0 -13.29c-0.037,-0.745 -0.203,-1.478 -0.492,-2.166 -0.277,-0.657 -0.667,-1.259 -1.154,-1.779 -0.469,-0.495 -1.034,-0.889 -1.66,-1.157 -0.723,-0.301 -1.5,-0.449 -2.283,-0.433 -0.728,-0.002 -1.449,0.145 -2.118,0.433 -0.647,0.274 -1.248,0.647 -1.779,1.108 -0.48,0.51 -0.878,1.091 -1.181,1.723 -0.305,0.646 -0.461,1.354 -0.455,2.069l0 13.537 -3.936 0 0 -22.717 3.936 0 0 2.215c1.038,-0.921 2.271,-1.595 3.607,-1.969 0.735,-0.189 1.491,-0.284 2.251,-0.28 1.225,0.002 2.438,0.251 3.566,0.731 1.129,0.48 2.149,1.181 3.002,2.062 0.826,0.88 1.479,1.909 1.923,3.032 0.467,1.163 0.704,2.405 0.699,3.658l0.01 13.174zm13.422 -0.047c-0.969,0.29 -1.974,0.435 -2.984,0.434 -0.941,-0.002 -1.873,-0.191 -2.741,-0.554 -0.847,-0.338 -1.635,-0.809 -2.334,-1.396 -0.579,-0.485 -1.125,-1.008 -1.636,-1.565 -0.375,-0.408 -0.721,-0.842 -1.033,-1.299 0.5,-0.575 1.148,-1 1.874,-1.231 0.547,-0.174 1.134,-0.182 1.685,-0.022 0.502,0.173 0.961,0.452 1.346,0.817 1.061,0.961 2.007,1.443 2.839,1.445 0.471,-0.003 0.94,-0.068 1.395,-0.192 0.492,-0.12 0.962,-0.315 1.394,-0.579 0.388,-0.226 0.718,-0.54 0.965,-0.915 0.234,-0.357 0.351,-0.777 0.334,-1.204 0.017,-0.396 -0.101,-0.785 -0.334,-1.105 -0.27,-0.398 -0.613,-0.741 -1.011,-1.011 -0.482,-0.304 -0.999,-0.546 -1.54,-0.721 -0.546,-0.224 -1.108,-0.402 -1.683,-0.532 -0.814,-0.229 -1.604,-0.535 -2.359,-0.913 -0.753,-0.342 -1.45,-0.797 -2.067,-1.349 -0.689,-0.556 -1.262,-1.242 -1.685,-2.02 -0.359,-0.7 -0.541,-1.476 -0.529,-2.263 -0.013,-0.906 0.164,-1.806 0.52,-2.64 0.345,-0.791 0.857,-1.497 1.5,-2.073 0.675,-0.595 1.459,-1.053 2.31,-1.346 0.932,-0.3 1.907,-0.446 2.886,-0.433 1.456,-0.019 2.894,0.328 4.182,1.009 0.689,0.392 1.32,0.878 1.874,1.445 0.514,0.472 0.924,1.046 1.203,1.686 -1.377,1.25 -2.868,1.442 -4.472,0.576 -0.465,-0.238 -0.948,-0.439 -1.444,-0.601 -0.432,-0.17 -0.886,-0.275 -1.348,-0.312 -0.476,-0.006 -0.95,0.077 -1.395,0.246 -0.382,0.11 -0.74,0.29 -1.058,0.529 -0.268,0.24 -0.481,0.536 -0.625,0.866 -0.172,0.326 -0.257,0.69 -0.246,1.058 -0.003,0.307 0.082,0.608 0.246,0.867 0.196,0.324 0.458,0.603 0.77,0.817 0.364,0.232 0.75,0.426 1.154,0.578 0.448,0.164 0.849,0.293 1.203,0.384l0.674 0.195c0.992,0.264 1.958,0.618 2.886,1.058 0.825,0.4 1.586,0.919 2.26,1.541 0.641,0.566 1.165,1.252 1.54,2.02 0.356,0.752 0.536,1.575 0.529,2.407 0.017,1.019 -0.214,2.027 -0.674,2.936 -0.446,0.832 -1.07,1.555 -1.828,2.117 -0.361,0.293 -0.757,0.541 -1.178,0.739 -0.435,0.212 -0.889,0.384 -1.355,0.511l-0.01 -0.005zm9.763 0.246l0 -18.82 -2.934 0 0 -1.575c-0.001,-0.304 0.058,-0.605 0.173,-0.886 0.116,-0.28 0.286,-0.536 0.501,-0.751 0.215,-0.214 0.47,-0.384 0.75,-0.5 0.281,-0.116 0.582,-0.175 0.886,-0.174l0.624 0 0 -3.141c0,-2.147 0.979,-3.222 2.935,-3.224l1.107 0 0 6.353 4.089 0 0 0.962c-0.005,0.777 -0.315,1.521 -0.865,2.071 -0.549,0.55 -1.293,0.86 -2.07,0.865l-1.154 0 0 15.114c0.008,0.488 -0.084,0.972 -0.27,1.423 -0.186,0.45 -0.462,0.859 -0.812,1.198 -0.332,0.347 -0.732,0.622 -1.174,0.809 -0.443,0.186 -0.919,0.279 -1.399,0.274l-0.387 0.002zm15.107 -27.794c0.002,0.61 -0.208,1.2 -0.593,1.672 -0.385,0.471 -0.922,0.795 -1.518,0.915 -0.597,0.12 -1.217,0.029 -1.754,-0.257 -0.538,-0.286 -0.959,-0.75 -1.193,-1.313 -0.233,-0.562 -0.265,-1.188 -0.089,-1.771 0.177,-0.583 0.549,-1.087 1.055,-1.425 0.506,-0.339 1.114,-0.492 1.72,-0.432 0.606,0.06 1.172,0.328 1.602,0.758 0.248,0.24 0.444,0.528 0.576,0.846 0.132,0.318 0.198,0.661 0.194,1.005l0 0.002zm-4.62 27.696l0 -22.716 3.936 0 0 22.716 -3.936 0zm9.671 0.096l0 -18.818 -2.935 0 0 -1.575c-0.001,-0.304 0.058,-0.605 0.174,-0.886 0.115,-0.28 0.286,-0.536 0.5,-0.751 0.215,-0.214 0.47,-0.384 0.751,-0.5 0.28,-0.116 0.581,-0.175 0.885,-0.174l0.625 0 0 -3.141c0,-2.147 0.978,-3.222 2.934,-3.224l1.103 0 0 6.353 4.088 0 0 0.962c-0.004,0.777 -0.315,1.521 -0.865,2.071 -0.549,0.55 -1.293,0.86 -2.07,0.865l-1.153 0 0 15.114c0.008,0.488 -0.084,0.972 -0.27,1.423 -0.187,0.45 -0.463,0.859 -0.813,1.198 -0.332,0.347 -0.732,0.622 -1.174,0.808 -0.443,0.186 -0.919,0.28 -1.399,0.275l-0.381 0zm10.15 -22.765l3.896 0 0 13.289c0.066,0.745 0.245,1.476 0.532,2.167 0.242,0.645 0.618,1.233 1.104,1.722 0.481,0.515 1.063,0.924 1.71,1.204 0.707,0.298 1.469,0.446 2.236,0.433 0.728,0.008 1.449,-0.14 2.116,-0.433 0.664,-0.262 1.27,-0.655 1.781,-1.155 0.509,-0.476 0.918,-1.049 1.203,-1.685 0.323,-0.659 0.488,-1.384 0.479,-2.117l0 -13.472 3.936 0 0 22.716 -3.936 0 0 -2.262c-0.479,0.449 -1.012,0.838 -1.586,1.157 -0.649,0.355 -1.334,0.637 -2.045,0.842 -0.743,0.211 -1.512,0.317 -2.285,0.312 -1.245,0.009 -2.476,-0.254 -3.609,-0.77 -1.104,-0.469 -2.102,-1.157 -2.935,-2.021 -0.837,-0.873 -1.491,-1.904 -1.923,-3.034 -0.453,-1.178 -0.682,-2.43 -0.674,-3.692l0 -13.201zm24.681 22.765l0 -18.818 -2.935 0 0 -1.575c-0.002,-0.304 0.057,-0.605 0.172,-0.886 0.116,-0.281 0.286,-0.536 0.5,-0.751 0.215,-0.215 0.47,-0.385 0.75,-0.501 0.281,-0.115 0.582,-0.174 0.886,-0.173l0.627 0 0 -3.141c0,-2.147 0.977,-3.222 2.932,-3.224l1.107 0 0 6.353 4.089 0 0 0.962c-0.005,0.777 -0.315,1.52 -0.864,2.07 -0.549,0.55 -1.292,0.861 -2.069,0.866l-1.156 0 0 15.114c0.009,0.488 -0.083,0.972 -0.269,1.423 -0.186,0.451 -0.463,0.859 -0.813,1.198 -0.332,0.347 -0.732,0.622 -1.175,0.809 -0.442,0.186 -0.918,0.279 -1.398,0.274l-0.384 0zm23.429 -0.335c-1.146,0.393 -2.351,0.588 -3.562,0.576 -1.554,0.01 -3.093,-0.301 -4.522,-0.913 -2.74,-1.197 -4.924,-3.391 -6.108,-6.138 -0.614,-1.412 -0.927,-2.937 -0.917,-4.477 -0.01,-1.545 0.293,-3.076 0.89,-4.501 0.561,-1.366 1.368,-2.618 2.381,-3.692 1.005,-1.05 2.206,-1.892 3.535,-2.479 1.37,-0.611 2.855,-0.923 4.355,-0.915 1.439,-0.006 2.863,0.289 4.182,0.866 1.292,0.562 2.462,1.372 3.444,2.383 2.074,2.168 3.221,5.061 3.198,8.062 0,0.77 -0.289,1.299 -0.866,1.588 -0.421,0.202 -0.882,0.301 -1.348,0.29l-15.68 0c0.125,0.635 0.336,1.25 0.624,1.829 0.397,0.838 0.952,1.59 1.636,2.215 0.692,0.622 1.491,1.112 2.359,1.445 0.886,0.361 1.834,0.544 2.79,0.539 0.817,0.002 1.63,-0.127 2.406,-0.384 0.175,-0.035 0.344,-0.092 0.504,-0.17 0.191,-0.083 0.391,-0.145 0.596,-0.185 0.127,-0.014 0.329,-0.046 0.602,-0.096 0.24,-0.051 0.49,-0.034 0.721,0.05 0.247,0.097 0.489,0.209 0.723,0.334 0.316,0.179 0.607,0.397 0.866,0.65 0.338,0.33 0.652,0.684 0.937,1.061 -0.208,0.21 -0.434,0.403 -0.674,0.576 -0.951,0.634 -1.985,1.134 -3.072,1.486zm-9.72 -13.044l12.509 0c-0.125,-0.567 -0.319,-1.116 -0.578,-1.637 -0.408,-0.76 -0.936,-1.451 -1.562,-2.045 -0.608,-0.581 -1.318,-1.047 -2.093,-1.373 -0.811,-0.326 -1.677,-0.493 -2.551,-0.492 -0.86,-0.001 -1.711,0.169 -2.504,0.502 -0.804,0.302 -1.539,0.761 -2.165,1.349 -0.629,0.619 -1.177,1.314 -1.634,2.069 -0.225,0.353 -0.404,0.734 -0.531,1.133 -0.106,0.305 -0.189,0.619 -0.246,0.937l0 0.337c0.521,-0.524 0.972,-0.78 1.355,-0.78zm-107.93 -25.638l-1.476 0 0 -12.46 1.476 0 0 12.46zm9.894 -0.088l-1.458 0.017 0 -4.922c-0.013,-0.276 -0.074,-0.548 -0.18,-0.803 -0.104,-0.239 -0.248,-0.459 -0.425,-0.649 -0.174,-0.183 -0.384,-0.328 -0.615,-0.426 -0.268,-0.113 -0.557,-0.167 -0.847,-0.16 -0.269,-0.002 -0.535,0.053 -0.782,0.16 -0.246,0.089 -0.47,0.229 -0.658,0.409 -0.189,0.181 -0.337,0.4 -0.437,0.641 -0.113,0.24 -0.17,0.502 -0.167,0.766l0 5.001 -1.461 0 0 -8.395 1.461 0 0 0.812c0.172,-0.159 0.363,-0.297 0.568,-0.411 0.239,-0.141 0.497,-0.249 0.765,-0.32 0.273,-0.071 0.555,-0.106 0.837,-0.105 0.466,-0.005 0.928,0.093 1.353,0.285 0.406,0.169 0.773,0.42 1.077,0.738 0.626,0.672 0.972,1.558 0.969,2.476l0 4.886zm6.192 0.106c-0.534,0.005 -1.063,-0.11 -1.547,-0.338 -0.481,-0.21 -0.912,-0.519 -1.264,-0.908 -0.363,-0.389 -0.647,-0.846 -0.837,-1.344 -0.403,-1.073 -0.403,-2.256 0,-3.329 0.191,-0.5 0.475,-0.96 0.837,-1.354 0.354,-0.384 0.78,-0.695 1.254,-0.916 0.487,-0.228 1.019,-0.344 1.557,-0.339 0.359,-0.003 0.715,0.048 1.058,0.152 0.316,0.096 0.615,0.243 0.883,0.436 0.216,0.147 0.413,0.321 0.586,0.517l0 -4.861 1.495 0 0 12.16 -1.495 0 0 -0.785c-0.114,0.115 -0.239,0.216 -0.374,0.303 -0.271,0.19 -0.571,0.335 -0.888,0.428 -0.41,0.126 -0.837,0.186 -1.265,0.178zm0.054 -7.067c-0.332,-0.003 -0.661,0.07 -0.961,0.212 -0.302,0.15 -0.573,0.354 -0.8,0.603 -0.241,0.265 -0.429,0.573 -0.553,0.908 -0.26,0.707 -0.26,1.484 0,2.191 0.122,0.331 0.31,0.634 0.553,0.891 0.22,0.257 0.493,0.463 0.8,0.605 0.304,0.14 0.634,0.212 0.969,0.212 0.329,0.002 0.654,-0.071 0.952,-0.212 0.308,-0.142 0.584,-0.346 0.812,-0.598 0.236,-0.264 0.423,-0.568 0.551,-0.898 0.202,-0.515 0.258,-1.076 0.161,-1.621 -0.096,-0.544 -0.341,-1.051 -0.707,-1.466 -0.231,-0.253 -0.506,-0.462 -0.812,-0.615 -0.301,-0.144 -0.631,-0.216 -0.965,-0.212zm12.278 6.784c-0.528,0.225 -1.098,0.34 -1.673,0.337 -1.129,-0.005 -2.212,-0.452 -3.015,-1.246 -0.385,-0.388 -0.69,-0.848 -0.898,-1.353 -0.227,-0.525 -0.343,-1.092 -0.34,-1.664 -0.003,-0.572 0.109,-1.139 0.33,-1.666 0.21,-0.509 0.519,-0.972 0.908,-1.361 0.391,-0.39 0.852,-0.701 1.36,-0.918 0.522,-0.227 1.086,-0.342 1.655,-0.337 0.575,-0.004 1.145,0.111 1.673,0.337 0.508,0.216 0.97,0.527 1.361,0.918 0.388,0.389 0.697,0.852 0.907,1.361 0.44,1.066 0.44,2.263 0,3.33 -0.21,0.508 -0.521,0.969 -0.915,1.353 -0.387,0.389 -0.847,0.697 -1.353,0.909zm-0.57 -6.535c-0.342,-0.153 -0.711,-0.232 -1.085,-0.232 -0.374,0 -0.744,0.079 -1.085,0.232 -0.335,0.148 -0.643,0.353 -0.908,0.606 -0.26,0.26 -0.469,0.569 -0.615,0.908 -0.148,0.346 -0.223,0.718 -0.221,1.095 -0.003,0.377 0.076,0.749 0.231,1.093 0.148,0.335 0.357,0.64 0.615,0.9 0.256,0.255 0.557,0.46 0.888,0.606 0.346,0.149 0.718,0.224 1.095,0.221 0.372,0 0.741,-0.074 1.085,-0.217 0.344,-0.144 0.655,-0.354 0.917,-0.619 0.252,-0.258 0.454,-0.56 0.595,-0.891 0.155,-0.344 0.234,-0.716 0.232,-1.093 0.002,-0.377 -0.074,-0.749 -0.222,-1.095 -0.29,-0.685 -0.837,-1.228 -1.522,-1.514zm12.563 6.719l-1.459 0.017 0 -4.922c-0.013,-0.276 -0.073,-0.547 -0.177,-0.802 -0.104,-0.243 -0.249,-0.466 -0.428,-0.66 -0.173,-0.183 -0.382,-0.327 -0.613,-0.426 -0.267,-0.112 -0.556,-0.166 -0.846,-0.16 -0.269,-0.001 -0.535,0.053 -0.782,0.16 -0.246,0.089 -0.471,0.228 -0.66,0.409 -0.188,0.181 -0.337,0.4 -0.435,0.642 -0.114,0.239 -0.172,0.501 -0.17,0.766l0 5.001 -1.458 0 0 -8.393 1.458 0 0 0.812c0.174,-0.159 0.365,-0.297 0.571,-0.411 0.239,-0.142 0.496,-0.25 0.765,-0.32 0.273,-0.071 0.554,-0.106 0.837,-0.105 0.452,0.001 0.9,0.094 1.317,0.271 0.417,0.177 0.794,0.435 1.111,0.76 0.306,0.325 0.547,0.706 0.71,1.122 0.173,0.43 0.261,0.89 0.259,1.354l0 4.885zm7.813 -0.054c-0.424,0.145 -0.869,0.218 -1.316,0.214 -0.575,0.004 -1.145,-0.111 -1.673,-0.337 -1.014,-0.444 -1.822,-1.255 -2.261,-2.272 -0.227,-0.521 -0.341,-1.085 -0.337,-1.654 -0.004,-0.572 0.108,-1.138 0.327,-1.666 0.209,-0.506 0.507,-0.969 0.881,-1.368 0.372,-0.389 0.817,-0.701 1.309,-0.918 0.507,-0.225 1.056,-0.34 1.611,-0.337 0.532,-0.003 1.06,0.105 1.547,0.319 0.478,0.208 0.91,0.507 1.272,0.881 0.768,0.802 1.193,1.873 1.183,2.984 0.012,0.118 -0.012,0.237 -0.069,0.342 -0.057,0.104 -0.145,0.189 -0.25,0.243 -0.154,0.074 -0.322,0.111 -0.492,0.108l-5.808 0c0.048,0.235 0.125,0.462 0.231,0.677 0.146,0.31 0.352,0.587 0.605,0.817 0.257,0.23 0.552,0.412 0.873,0.537 0.328,0.131 0.678,0.197 1.031,0.194 0.303,0.002 0.603,-0.046 0.89,-0.142 0.065,-0.013 0.128,-0.033 0.187,-0.062 0.071,-0.033 0.145,-0.057 0.222,-0.071 0.049,0 0.123,-0.017 0.224,-0.037 0.088,-0.018 0.18,-0.011 0.265,0.02 0.092,0.035 0.181,0.077 0.269,0.123 0.116,0.068 0.224,0.15 0.319,0.246 0.126,0.121 0.242,0.252 0.347,0.391 -0.076,0.078 -0.158,0.15 -0.246,0.214 -0.354,0.233 -0.738,0.418 -1.141,0.546l0 0.008zm-3.594 -4.824l4.624 0c-0.045,-0.21 -0.116,-0.413 -0.211,-0.605 -0.151,-0.282 -0.347,-0.536 -0.578,-0.756 -0.227,-0.223 -0.497,-0.399 -0.792,-0.517 -0.296,-0.117 -0.612,-0.175 -0.93,-0.17 -0.638,0.004 -1.252,0.245 -1.722,0.677 -0.233,0.229 -0.436,0.486 -0.605,0.766 -0.083,0.13 -0.149,0.271 -0.197,0.418 -0.038,0.113 -0.068,0.229 -0.089,0.347l0 0.126c0.123,-0.158 0.302,-0.263 0.5,-0.293l0 0.007zm11.958 4.853c-0.359,0.107 -0.731,0.161 -1.105,0.16 -0.348,-0.001 -0.692,-0.07 -1.013,-0.204 -0.313,-0.126 -0.605,-0.301 -0.864,-0.517 -0.213,-0.18 -0.415,-0.373 -0.605,-0.578 -0.139,-0.155 -0.266,-0.319 -0.381,-0.492 0.185,-0.212 0.425,-0.368 0.693,-0.453 0.203,-0.063 0.42,-0.063 0.623,0 0.183,0.065 0.351,0.168 0.492,0.302 0.393,0.358 0.744,0.536 1.05,0.534 0.175,0 0.349,-0.024 0.517,-0.071 0.182,-0.044 0.356,-0.115 0.516,-0.211 0.143,-0.085 0.265,-0.201 0.355,-0.34 0.088,-0.131 0.132,-0.287 0.125,-0.446 0.006,-0.146 -0.038,-0.29 -0.125,-0.408 -0.099,-0.148 -0.225,-0.275 -0.372,-0.374 -0.178,-0.112 -0.37,-0.203 -0.57,-0.268 -0.202,-0.083 -0.41,-0.148 -0.623,-0.195 -0.301,-0.085 -0.594,-0.199 -0.873,-0.339 -0.278,-0.126 -0.536,-0.292 -0.765,-0.493 -0.253,-0.203 -0.465,-0.454 -0.623,-0.738 -0.132,-0.259 -0.199,-0.546 -0.194,-0.837 -0.005,-0.338 0.061,-0.673 0.194,-0.984 0.125,-0.295 0.311,-0.559 0.547,-0.776 0.25,-0.218 0.541,-0.385 0.856,-0.492 0.344,-0.111 0.705,-0.165 1.067,-0.16 0.539,-0.007 1.072,0.121 1.548,0.374 0.261,0.142 0.5,0.32 0.711,0.529 0.19,0.174 0.342,0.387 0.445,0.623 -0.21,0.22 -0.489,0.361 -0.791,0.399 -0.301,0.039 -0.606,-0.028 -0.865,-0.187 -0.172,-0.087 -0.351,-0.161 -0.534,-0.222 -0.157,-0.062 -0.323,-0.101 -0.492,-0.116 -0.176,-0.002 -0.351,0.028 -0.516,0.089 -0.141,0.041 -0.274,0.108 -0.391,0.197 -0.1,0.089 -0.179,0.198 -0.232,0.32 -0.062,0.121 -0.092,0.255 -0.088,0.391 -0.002,0.113 0.029,0.224 0.088,0.32 0.071,0.121 0.168,0.224 0.283,0.303 0.135,0.086 0.279,0.158 0.428,0.214 0.168,0.059 0.315,0.108 0.446,0.143l0.246 0.071c0.367,0.097 0.724,0.228 1.067,0.392 0.305,0.148 0.587,0.341 0.837,0.57 0.236,0.208 0.43,0.458 0.57,0.739 0.131,0.279 0.198,0.583 0.195,0.891 0.006,0.376 -0.078,0.749 -0.246,1.085 -0.171,0.311 -0.409,0.58 -0.696,0.788 -0.135,0.108 -0.281,0.2 -0.436,0.275 -0.161,0.079 -0.328,0.143 -0.499,0.192zm5.835 -10.194c0,0.225 -0.078,0.442 -0.22,0.616 -0.142,0.173 -0.34,0.292 -0.56,0.336 -0.22,0.044 -0.449,0.01 -0.646,-0.096 -0.198,-0.106 -0.353,-0.277 -0.439,-0.485 -0.086,-0.207 -0.097,-0.438 -0.032,-0.652 0.066,-0.215 0.203,-0.401 0.39,-0.525 0.187,-0.125 0.411,-0.181 0.634,-0.158 0.223,0.022 0.432,0.121 0.59,0.28 0.091,0.089 0.163,0.195 0.212,0.313 0.049,0.118 0.073,0.244 0.071,0.371zm-1.702 10.246l0 -8.395 1.458 0 0 8.402 -1.458 -0.007zm8.915 -0.017c-0.336,0.096 -0.684,0.144 -1.034,0.143 -0.552,0.005 -1.098,-0.11 -1.601,-0.337 -0.483,-0.217 -0.918,-0.525 -1.282,-0.909 -0.36,-0.4 -0.646,-0.862 -0.844,-1.363 -0.21,-0.523 -0.316,-1.083 -0.312,-1.647 -0.003,-0.566 0.1,-1.127 0.303,-1.656 0.19,-0.509 0.476,-0.976 0.841,-1.378 0.361,-0.391 0.797,-0.706 1.282,-0.926 0.504,-0.224 1.051,-0.336 1.604,-0.329 0.355,-0.003 0.708,0.045 1.05,0.142 0.321,0.099 0.629,0.237 0.918,0.409 0.218,0.135 0.416,0.301 0.587,0.492l0.018 -1.034c0.188,-0.002 0.374,0.035 0.548,0.109 0.173,0.074 0.329,0.182 0.458,0.32 0.134,0.132 0.24,0.29 0.312,0.464 0.072,0.174 0.108,0.361 0.106,0.55l0 6.96c-0.974,0 -1.461,-0.303 -1.461,-0.909 -0.174,0.195 -0.377,0.362 -0.603,0.493 -0.275,0.179 -0.577,0.313 -0.895,0.396l0.005 0.01zm-0.037 -6.712c-0.315,-0.148 -0.659,-0.221 -1.006,-0.214 -0.356,-0.005 -0.707,0.068 -1.031,0.214 -0.307,0.142 -0.583,0.345 -0.81,0.596 -0.235,0.262 -0.417,0.568 -0.533,0.901 -0.127,0.353 -0.19,0.727 -0.187,1.102 -0.004,0.374 0.059,0.745 0.187,1.096 0.117,0.326 0.298,0.626 0.533,0.881 0.23,0.248 0.505,0.45 0.81,0.595 0.316,0.152 0.663,0.229 1.013,0.224 0.35,0.004 0.696,-0.069 1.014,-0.214 0.305,-0.139 0.578,-0.339 0.802,-0.588 0.232,-0.26 0.413,-0.562 0.534,-0.889 0.121,-0.355 0.181,-0.729 0.177,-1.105 0.003,-0.375 -0.061,-0.749 -0.187,-1.102 -0.115,-0.329 -0.293,-0.631 -0.524,-0.891 -0.214,-0.262 -0.487,-0.47 -0.797,-0.606l0.005 0z"></path>
  <path class="fil0" d="M105.524 16.244c0.62,0 1.23,-0.151 1.776,-0.443 0.547,-0.291 1.013,-0.713 1.358,-1.227 0.345,-0.515 0.557,-1.107 0.618,-1.724 0.061,-0.616 -0.03,-1.239 -0.267,-1.811 -0.237,-0.573 -0.611,-1.078 -1.09,-1.471 -0.479,-0.394 -1.047,-0.663 -1.654,-0.783 -0.608,-0.121 -1.236,-0.09 -1.828,0.09 -0.593,0.18 -1.132,0.504 -1.57,0.942l-0.344 0.345 -0.467 -0.133c-21.766,-6.152 -45.027,-4.149 -65.422,5.634l-2.379 1.142 1.297 -2.299c1.873,-3.325 4.177,-6.387 6.853,-9.106l0.015 -0.015c0.059,-0.057 0.109,-0.122 0.148,-0.195l0.174 -0.302 1.034 -0.264c7.549,-1.86 15.336,-2.567 23.096,-2.097l0.453 0.028 0.222 0.393c0.202,0.359 0.511,0.646 0.884,0.82 0.373,0.174 0.792,0.227 1.196,0.15 0.405,-0.076 0.776,-0.278 1.06,-0.576 0.284,-0.298 0.467,-0.678 0.524,-1.086 0.057,-0.408 -0.015,-0.824 -0.207,-1.189 -0.191,-0.364 -0.493,-0.66 -0.861,-0.844 -0.368,-0.184 -0.785,-0.249 -1.192,-0.184 -0.407,0.065 -0.782,0.257 -1.075,0.546l-0.263 0.264 -0.376 -0.022c-8.017,-0.511 -16.064,0.209 -23.862,2.134 -0.855,0.21 -1.705,0.435 -2.552,0.674l-0.174 0.049 -0.18 -0.027c-5.888,-0.909 -11.912,-0.038 -17.303,2.5 -5.39,2.538 -9.901,6.627 -12.955,11.746 -1.574,2.582 -2.59,5.465 -2.984,8.464 -0.394,2.998 -0.155,6.047 0.699,8.948l0.032 0.167c0.053,0.638 -0.009,1.28 -0.185,1.896l-0.051 0.164c-0.214,0.657 -0.556,1.264 -1.007,1.787l-6.322 8.509c-0.433,0.666 -0.723,1.589 0.48,2.886 0.632,0.687 1.739,1.425 3.306,2.186l0.273 0.133 0.124 0.276c0.112,0.271 0.176,0.56 0.189,0.853 0.012,0.829 -0.125,1.652 -0.404,2.432 -0.03,0.101 -0.042,0.207 -0.034,0.313 0.001,0.596 0.171,1.18 0.492,1.683 0.061,0.097 0.128,0.19 0.202,0.278l0.297 0.372 -0.17 0.445c-0.058,0.162 -0.11,0.326 -0.152,0.493 -0.153,0.656 -0.142,1.339 0.033,1.99 0.175,0.651 0.509,1.248 0.971,1.738 0.172,0.182 0.362,0.347 0.565,0.493l0.406 0.29 -0.066 0.492c-0.492,3.665 0.165,6.323 1.985,7.898 1.939,1.681 5.166,2.07 9.609,1.166l0.123 -0.026 0.128 0c2.325,0.233 4.536,1.117 6.381,2.551 1.845,1.434 3.249,3.36 4.049,5.556 0.023,0.071 0.051,0.141 0.084,0.209 0.052,0.099 0.124,0.187 0.211,0.259 0.086,0.071 0.186,0.125 0.294,0.158 0.107,0.032 0.22,0.043 0.332,0.032 0.112,-0.011 0.22,-0.044 0.319,-0.097 6.028,-3.179 12.243,-5.989 18.61,-8.415 5.001,-1.9 10.138,-3.574 15.269,-4.976l0.613 -0.168 0.322 0.546c0.444,0.755 1.137,1.331 1.96,1.63 0.823,0.299 1.725,0.301 2.549,0.007 0.825,-0.295 1.52,-0.867 1.968,-1.62 0.449,-0.752 0.62,-1.637 0.486,-2.503 -0.134,-0.865 -0.565,-1.657 -1.22,-2.239 -0.654,-0.582 -1.491,-0.917 -2.366,-0.948 -0.874,-0.031 -1.733,0.244 -2.427,0.778 -0.694,0.533 -1.181,1.293 -1.375,2.146l-0.111 0.493 -0.492 0.13c-4.617,1.25 -9.24,2.707 -13.737,4.359l-0.388 0.142 -0.35 -0.223c-4.975,-3.214 -9.233,-7.421 -12.506,-12.358l-0.338 -0.507 0.382 -0.475c0.477,-0.593 0.939,-1.196 1.397,-1.806 3.831,-5.153 6.843,-10.869 8.927,-16.943l0.18 -0.517 0.544 -0.042c1.134,-0.088 2.225,-0.472 3.164,-1.114 0.94,-0.642 1.694,-1.52 2.188,-2.545 0.494,-1.025 0.711,-2.162 0.628,-3.297 -0.083,-1.135 -0.462,-2.229 -1.1,-3.171l-0.62 -0.911 1.046 -0.347c8.81,-2.927 18.057,-4.319 27.338,-4.117l0.428 0 0.246 0.354c0.233,0.34 0.567,0.599 0.955,0.739 0.388,0.14 0.81,0.155 1.207,0.042 0.396,-0.113 0.747,-0.348 1.004,-0.671 0.256,-0.324 0.404,-0.719 0.423,-1.132 0.02,-0.412 -0.091,-0.819 -0.316,-1.165 -0.225,-0.346 -0.553,-0.612 -0.937,-0.762 -0.385,-0.149 -0.806,-0.174 -1.206,-0.07 -0.399,0.103 -0.756,0.329 -1.019,0.646l-0.259 0.311 -0.401 0c-10.182,-0.238 -20.32,1.409 -29.904,4.858l-0.322 0.115 -0.309 -0.145c-0.808,-0.371 -1.683,-0.573 -2.571,-0.594 -0.888,-0.021 -1.771,0.139 -2.596,0.471l-0.514 0.209 -0.391 -0.393c-2.421,-2.436 -5.08,-4.623 -7.938,-6.528 -0.327,-0.218 -0.655,-0.43 -0.984,-0.64l-1.231 -0.782 1.307 -0.662c20.266,-10.261 43.628,-12.592 65.52,-6.534l0.607 0.167 0 0.635c-0.012,0.503 0.076,1.005 0.26,1.474 0.183,0.469 0.458,0.897 0.808,1.259 0.351,0.362 0.769,0.65 1.232,0.849 0.463,0.198 0.961,0.303 1.464,0.307zm-81.66 -3.648c4.173,-2.392 8.559,-4.389 13.102,-5.966l2.674 -0.927 -1.749 2.214c-2.135,2.722 -3.952,5.68 -5.412,8.816l-0.361 0.783 -0.768 -0.391c-2.363,-1.194 -4.816,-2.203 -7.336,-3.015l-1.786 -0.581 1.636 -0.933zm6.259 51.308l-0.559 -0.389c-1.501,-1.043 -2.981,-2.188 -4.403,-3.404 -1.554,-1.329 -3.033,-2.744 -4.428,-4.238l-0.46 -0.492 0.388 -0.551c0.547,-0.783 0.854,-1.709 0.882,-2.665 0.028,-0.955 -0.224,-1.897 -0.724,-2.711l-0.345 -0.556 0.456 -0.465c2.015,-2.062 4.138,-4.016 6.359,-5.855l0.361 -0.298 1.147 0.379 0.083 0.505c0.906,5.414 2.798,10.615 5.582,15.345l0.305 0.517 -0.394 0.45c-1.203,1.381 -2.459,2.708 -3.771,3.958l-0.479 0.47zm12.26 4.536l3.033 2.857 -3.896 -1.477c-3.13,-1.184 -6.146,-2.651 -9.011,-4.38l-0.916 -0.554 0.763 -0.738c0.913,-0.896 1.811,-1.839 2.672,-2.799l0.701 -0.78 0.6 0.861c1.773,2.538 3.802,4.886 6.054,7.01zm2.928 -29.534l0.723 0.305 -0.263 0.738c-2.017,5.704 -4.878,11.071 -8.487,15.924l-1.351 1.777 -0.603 -1.12c-2.272,-4.128 -3.851,-8.601 -4.674,-13.241l-0.118 -0.662 0.623 -0.246c0.784,-0.317 1.456,-0.861 1.928,-1.563 0.473,-0.702 0.725,-1.529 0.723,-2.375l-0.044 -0.692 0.409 -0.27c1.882,-1.25 3.842,-2.437 5.825,-3.527l1.23 -0.674 0.246 1.075c0.231,1.009 0.699,1.948 1.365,2.739 0.667,0.791 1.513,1.412 2.468,1.809l0 0.003zm-9.735 -17.307c2.607,1.734 5.043,3.712 7.277,5.907l0.556 0.549 -0.514 0.588c-0.562,0.648 -0.991,1.401 -1.262,2.215l-0.106 0.32 -0.3 0.155c-0.689,0.357 -1.377,0.721 -2.059,1.095 -1.845,1.014 -3.665,2.109 -5.412,3.249l-0.591 0.386 -0.477 -0.519c-0.548,-0.595 -1.255,-1.022 -2.036,-1.231l-0.65 -0.174 0.034 -0.672c0.211,-4.015 0.98,-7.982 2.286,-11.784l0.615 -1.723 0.873 0.527c0.608,0.351 1.193,0.728 1.766,1.112z"></path>
  <path class="fil0" d="M52.304 16.317c-0.41,0 -0.812,0.122 -1.153,0.35 -0.342,0.229 -0.608,0.553 -0.765,0.933 -0.157,0.379 -0.198,0.797 -0.118,1.2 0.08,0.403 0.278,0.773 0.568,1.063 0.291,0.291 0.661,0.489 1.063,0.569 0.403,0.08 0.821,0.039 1.2,-0.118 0.379,-0.157 0.703,-0.424 0.932,-0.765 0.228,-0.342 0.35,-0.744 0.35,-1.154 -0.001,-0.551 -0.22,-1.079 -0.609,-1.468 -0.389,-0.39 -0.917,-0.609 -1.468,-0.61z"></path>
 </g>
</svg>
